<svg width="63" height="62" viewBox="0 0 63 62" fill="none" xmlns="http://www.w3.org/2000/svg">
<ellipse cx="31.9688" cy="31" rx="31.0156" ry="31" fill="#F0F4F8"/>
<path d="M14.4102 50.9106C14.4079 51.7517 14.6832 52.57 15.1934 53.2389L15.1945 53.2403C15.7289 53.9358 16.2735 54.6235 16.8279 55.3031H14.136C13.9353 55.0467 13.7332 54.7861 13.5289 54.5212C12.7313 53.4873 12.3086 52.2081 12.3086 50.9129C12.3086 47.9927 14.417 45.4636 17.3395 45.0371L17.3396 45.0371C28.2279 43.4467 35.7851 43.5893 46.6249 45.0888L46.625 45.0888C49.5156 45.4879 51.6289 47.9763 51.6289 50.871V50.8714C51.63 52.2105 51.1682 53.5089 50.3217 54.5469L17.7155 47.6083L17.6434 47.1135C17.6433 47.1135 17.6433 47.1135 17.6433 47.1135C15.7863 47.3843 14.4105 48.9999 14.4102 50.9106ZM14.4102 50.9106C14.4102 50.9108 14.4102 50.9111 14.4102 50.9113H14.9102L14.4102 50.9099C14.4102 50.9101 14.4102 50.9104 14.4102 50.9106ZM46.3402 47.1677L46.3371 47.1672L48.3093 52.9C48.7715 52.3358 49.0274 51.6135 49.0274 50.8695L49.5273 50.8727C49.5273 50.8721 49.5274 50.8715 49.5274 50.8709C49.5328 49.9734 49.2132 49.1041 48.6278 48.4236C48.0419 47.7426 47.2294 47.2965 46.3402 47.1677ZM31.9688 33.0516C33.2563 33.0516 34.5312 32.7981 35.7208 32.3056C36.9103 31.8131 37.9912 31.0913 38.9016 30.1813C39.8121 29.2713 40.5343 28.191 41.0271 27.0019C41.5198 25.8129 41.7735 24.5386 41.7735 23.2516C41.7735 21.9646 41.5198 20.6902 41.0271 19.5012C40.5343 18.3122 39.8121 17.2318 38.9016 16.3218C37.9912 15.4118 36.9103 14.69 35.7208 14.1975C34.5312 13.705 33.2563 13.4516 31.9688 13.4516C29.3685 13.4516 26.8746 14.484 25.0359 16.3218C23.1971 18.1597 22.1641 20.6524 22.1641 23.2516C22.1641 25.8508 23.1971 28.3435 25.0359 30.1813C26.8746 32.0191 29.3685 33.0516 31.9688 33.0516ZM40.3878 31.666C38.155 33.8978 35.1266 35.1516 31.9688 35.1516C28.8109 35.1516 25.7825 33.8978 23.5497 31.666C21.3168 29.4343 20.0625 26.4076 20.0625 23.2516C20.0625 20.0956 21.3168 17.0688 23.5497 14.8371C25.7825 12.6054 28.8109 11.3516 31.9688 11.3516C35.1266 11.3516 38.155 12.6054 40.3878 14.8371C42.6207 17.0688 43.875 20.0956 43.875 23.2516C43.875 26.4076 42.6207 29.4343 40.3878 31.666Z" fill="#102A43" stroke="black"/>
<path d="M31.9688 59.4C47.661 59.4 60.3828 46.6849 60.3828 31C60.3828 15.3151 47.661 2.6 31.9688 2.6C16.2765 2.6 3.55469 15.3151 3.55469 31C3.55469 46.6849 16.2765 59.4 31.9688 59.4ZM62.4844 31C62.4844 47.8449 48.8228 61.5 31.9688 61.5C15.1147 61.5 1.45312 47.8449 1.45312 31C1.45312 14.1551 15.1147 0.5 31.9688 0.5C48.8228 0.5 62.4844 14.1551 62.4844 31Z" fill="#102A43" stroke="black"/>
</svg>
