<svg width="50" height="50" viewBox="0 0 50 50" fill="none" xmlns="http://www.w3.org/2000/svg">
<circle cx="25" cy="25" r="25" fill="#F0F4F8"/>
<path d="M10.75 41.0555C10.7482 41.755 10.977 42.4356 11.4011 42.9919L11.4022 42.9933C11.7922 43.5012 12.189 44.0039 12.5922 44.5013H10.6734C10.5213 44.3067 10.3682 44.1092 10.2135 43.9084C9.584 43.0921 9.25 42.0813 9.25 41.0575C9.25 38.7489 10.9158 36.7515 13.2222 36.4148L13.2223 36.4147C21.9885 35.1337 28.0707 35.2484 36.8002 36.4565L36.8003 36.4566C39.081 36.7716 40.75 38.7364 40.75 41.0238V41.0242C40.7508 42.0816 40.3865 43.1068 39.7186 43.9265C39.5586 44.1205 39.4006 44.3118 39.2437 44.5H37.2782C37.7114 43.9978 38.1381 43.49 38.5582 42.9767C39.0049 42.431 39.2497 41.7367 39.25 41.024C39.2544 40.2769 38.9886 39.5535 38.5015 38.987C38.0141 38.4201 37.3379 38.0487 36.598 37.9414L36.5948 37.941C27.9868 36.7491 22.0477 36.6401 13.439 37.8978C11.8932 38.1233 10.7503 39.4682 10.75 41.0555ZM10.75 41.0555C10.75 41.0558 10.75 41.056 10.75 41.0563H11.25L10.75 41.0548C10.75 41.0551 10.75 41.0553 10.75 41.0555ZM36.1763 45H36.8432H36.1763ZM25 26.75C26.0506 26.75 27.0909 26.5431 28.0615 26.141C29.0321 25.739 29.914 25.1497 30.6569 24.4069C31.3997 23.664 31.989 22.7821 32.391 21.8115C32.7931 20.8409 33 19.8006 33 18.75C33 17.6994 32.7931 16.6591 32.391 15.6885C31.989 14.7179 31.3997 13.836 30.6569 13.0931C29.914 12.3503 29.0321 11.761 28.0615 11.359C27.0909 10.9569 26.0506 10.75 25 10.75C22.8783 10.75 20.8434 11.5929 19.3431 13.0931C17.8429 14.5934 17 16.6283 17 18.75C17 20.8717 17.8429 22.9066 19.3431 24.4069C20.8434 25.9071 22.8783 26.75 25 26.75ZM31.7175 25.4675C29.9359 27.2491 27.5196 28.25 25 28.25C22.4804 28.25 20.0641 27.2491 18.2825 25.4675C16.5009 23.6859 15.5 21.2696 15.5 18.75C15.5 16.2304 16.5009 13.8141 18.2825 12.0325C20.0641 10.2509 22.4804 9.25 25 9.25C27.5196 9.25 29.9359 10.2509 31.7175 12.0325C33.4991 13.8141 34.5 16.2304 34.5 18.75C34.5 21.2696 33.4991 23.6859 31.7175 25.4675Z" fill="#102A43" stroke="black"/>
<path d="M25 48C37.7024 48 48 37.7024 48 25C48 12.2976 37.7024 2 25 2C12.2976 2 2 12.2976 2 25C2 37.7024 12.2976 48 25 48ZM49.5 25C49.5 38.5314 38.5314 49.5 25 49.5C11.4686 49.5 0.5 38.5314 0.5 25C0.5 11.4686 11.4686 0.5 25 0.5C38.5314 0.5 49.5 11.4686 49.5 25Z" fill="#102A43" stroke="black"/>
</svg>
