<svg width="26" height="26" viewBox="0 0 26 26" fill="none" xmlns="http://www.w3.org/2000/svg">
<path d="M25.1518 13.6864C25.2687 14.065 25.3272 14.4564 25.3272 14.854C25.3272 15.747 25.025 16.6054 24.479 17.306C24.596 17.6847 24.6545 18.076 24.6545 18.4736C24.6545 19.3667 24.3522 20.225 23.8062 20.9256C23.9232 21.3043 23.9818 21.6956 23.9818 22.0932C23.9818 23.7215 22.984 25.189 21.437 25.8296C21.1651 25.9434 20.8719 26.0014 20.5757 26L1.04 26C0.46475 26 0 25.5487 0 24.9901L0 13.5033C0 12.9448 0.46475 12.4935 1.04 12.4935H5.24225L8.03075 2.68552C8.47925 1.1045 9.97425 1.90735e-06 11.6642 1.90735e-06C12.6295 1.90735e-06 13.5297 0.372377 14.196 1.05401C14.8622 1.73249 15.2035 2.6224 15.1547 3.55965L14.9597 7.43803H22.7565C23.1497 7.43803 23.5332 7.53901 23.8712 7.73151C25.1842 8.47311 26 9.81744 26 11.2344C26 12.1274 25.6978 12.9858 25.1518 13.6864ZM2.34 14.7688L2.34 23.731H4.9725L4.9725 14.7688H2.34ZM22.724 9.70699L12.506 9.70699L12.818 3.44605C12.8375 3.07052 12.6652 2.71708 12.3435 2.48355C12.1452 2.34155 11.9015 2.26896 11.6578 2.27212C11.3463 2.27505 11.0443 2.37599 10.797 2.55978C10.5497 2.74357 10.3705 3.0003 10.2862 3.29142L7.0525 14.6678L7.0525 23.731L20.553 23.731C20.8779 23.5896 21.1537 23.3602 21.3475 23.0702C21.5412 22.7802 21.6445 22.442 21.645 22.0963C21.645 21.7902 21.5702 21.4999 21.4207 21.2348L20.969 20.4333L21.6807 19.8337C21.8811 19.6652 22.0417 19.4568 22.1516 19.2226C22.2615 18.9885 22.3182 18.7341 22.3177 18.4767C22.3177 18.1706 22.243 17.8803 22.0935 17.6152L21.6418 16.8137L22.3535 16.2141C22.5538 16.0456 22.7144 15.8372 22.8244 15.603C22.9343 15.3689 22.9909 15.1145 22.9905 14.8571C22.9905 14.551 22.9157 14.2607 22.7662 13.9956L22.3112 13.1909L23.023 12.5913C23.2233 12.4228 23.3839 12.2144 23.4939 11.9803C23.6038 11.7461 23.6604 11.4917 23.66 11.2344C23.66 10.6316 23.3025 10.051 22.724 9.70699Z" fill="#3D42CC"/>
</svg>
