<svg width="20" height="20" viewBox="0 0 20 20" fill="none" xmlns="http://www.w3.org/2000/svg">
<path d="M6.33329 14.4633L6.41256 14.5664L6.49182 14.4633L17.0748 0.702361C17.3861 0.297621 17.7761 0.1 18.2511 0.1C18.7261 0.1 19.1162 0.297621 19.4275 0.702361C19.7401 1.10884 19.9 1.63018 19.9 2.27405C19.9 2.91792 19.7401 3.43927 19.4275 3.84574L7.58889 19.2393C7.24424 19.6875 6.85267 19.9 6.41256 19.9C5.97244 19.9 5.58087 19.6875 5.23622 19.2393L0.572542 13.1752C0.259938 12.7687 0.1 12.2474 0.1 11.6035C0.1 10.9596 0.259938 10.4383 0.572542 10.0318C0.88381 9.62707 1.27386 9.42945 1.74888 9.42945C2.2239 9.42945 2.61395 9.62707 2.92522 10.0318L6.33329 14.4633Z" fill="#5CE67A" stroke="#102A43" stroke-width="0.2"/>
</svg>
