<svg width="783" height="500" viewBox="0 0 783 500" fill="none" xmlns="http://www.w3.org/2000/svg">
<path d="M0 0H783V500H0V0Z" fill="#D9D9D9"/>
<path d="M501.959 130H270.2C265.311 130 260.622 132.034 257.164 135.654C253.707 139.273 251.765 144.183 251.765 149.302V347.841C251.765 352.96 253.707 357.869 257.164 361.489C260.622 365.109 265.311 367.143 270.2 367.143H501.959C506.848 367.143 511.537 365.109 514.994 361.489C518.452 357.869 520.394 352.96 520.394 347.841V149.302C520.394 144.183 518.452 139.273 514.994 135.654C511.537 132.034 506.848 130 501.959 130ZM270.2 146.545H501.959C502.657 146.545 503.327 146.835 503.821 147.352C504.315 147.87 504.592 148.571 504.592 149.302V305.789L462.323 261.532C458.848 257.945 454.165 255.934 449.286 255.934C444.407 255.934 439.724 257.945 436.25 261.532L408.992 290.071C408.757 290.339 408.473 290.552 408.155 290.699C407.838 290.845 407.495 290.92 407.148 290.92C406.802 290.92 406.459 290.845 406.141 290.699C405.824 290.552 405.539 290.339 405.305 290.071L346.443 228.442C342.969 224.855 338.286 222.844 333.407 222.844C328.528 222.844 323.845 224.855 320.37 228.442L267.566 283.729V149.302C267.566 148.571 267.844 147.87 268.338 147.352C268.832 146.835 269.502 146.545 270.2 146.545ZM501.959 350.598H270.2C269.502 350.598 268.832 350.307 268.338 349.79C267.844 349.273 267.566 348.572 267.566 347.841V307.168L331.563 240.161C331.798 239.894 332.083 239.68 332.4 239.534C332.717 239.388 333.06 239.313 333.407 239.313C333.754 239.313 334.096 239.388 334.414 239.534C334.731 239.68 335.016 239.894 335.25 240.161L394.112 301.791C397.586 305.378 402.269 307.388 407.148 307.388C412.027 307.388 416.71 305.378 420.185 301.791L447.443 273.251C447.677 272.983 447.962 272.77 448.279 272.624C448.597 272.478 448.939 272.402 449.286 272.402C449.633 272.402 449.976 272.478 450.293 272.624C450.61 272.77 450.895 272.983 451.13 273.251L504.592 329.228V347.841C504.592 348.572 504.315 349.273 503.821 349.79C503.327 350.307 502.657 350.598 501.959 350.598ZM413.601 219.756C412.374 218.472 411.405 216.945 410.749 215.264C410.093 213.583 409.765 211.782 409.782 209.967C409.782 206.31 411.169 202.803 413.639 200.218C416.108 197.632 419.458 196.179 422.95 196.179C426.442 196.179 429.792 197.632 432.261 200.218C434.731 202.803 436.118 206.31 436.118 209.967C436.118 213.623 434.731 217.13 432.261 219.716C429.792 222.302 426.442 223.754 422.95 223.754C421.216 223.772 419.496 223.428 417.89 222.741C416.285 222.055 414.827 221.04 413.601 219.756Z" fill="black"/>
</svg>
