<svg width="46" height="46" viewBox="0 0 46 46" fill="none" xmlns="http://www.w3.org/2000/svg">
<path d="M35.5291 22.981C35.5291 22.5739 35.329 22.216 35.0244 21.9916L35.0309 21.9805L30.7418 19.5043L33.2107 15.2282L33.2024 15.2231C33.2804 15.0469 33.3157 14.8547 33.3056 14.6623C33.2954 14.4698 33.24 14.2825 33.144 14.1154C33.0472 13.9485 32.9124 13.8068 32.7505 13.7018C32.5887 13.5968 32.4043 13.5314 32.2125 13.511V13.499H27.2592V8.56002H27.2491C27.2284 8.3684 27.163 8.18434 27.058 8.02274C26.9529 7.86115 26.8113 7.72656 26.6446 7.6299C26.4773 7.53352 26.2896 7.47807 26.0968 7.46807C25.9039 7.45808 25.7115 7.49383 25.5351 7.5724L25.5291 7.56182L21.1679 10.0799L18.7529 5.89662L18.7441 5.90168C18.6304 5.74607 18.4817 5.61943 18.3099 5.532C18.1382 5.44457 17.9483 5.39882 17.7556 5.39844C17.3485 5.39844 16.9901 5.59854 16.7661 5.90306L16.7551 5.89662L14.3001 10.1489L10.0727 7.7081L10.0676 7.71684C9.89136 7.63886 9.69922 7.60351 9.50677 7.61366C9.31432 7.62381 9.12697 7.67917 8.95991 7.77526C8.7929 7.87197 8.65108 8.00674 8.54597 8.1686C8.44086 8.33046 8.37543 8.51485 8.35501 8.70676H8.34259V13.6168H3.46107V13.6265C3.26946 13.6471 3.08539 13.7125 2.9238 13.8175C2.7622 13.9226 2.62762 14.0642 2.53095 14.2309C2.43482 14.3981 2.37948 14.5856 2.36941 14.7783C2.35934 14.9709 2.39483 15.1632 2.47299 15.3395L2.46241 15.3459L4.87557 19.526L0.554332 22.021L0.559392 22.0297C0.403788 22.1434 0.277145 22.2922 0.189716 22.4639C0.102287 22.6356 0.0565311 22.8256 0.0561523 23.0183C0.0561523 23.4254 0.256252 23.7837 0.560772 24.0077L0.554332 24.0188L4.84337 26.495L2.37455 30.7711L2.38283 30.7757C2.30485 30.952 2.2695 31.1441 2.27965 31.3365C2.2898 31.529 2.34517 31.7163 2.44125 31.8834C2.53805 32.0503 2.67285 32.192 2.8347 32.297C2.99655 32.4021 3.18089 32.4674 3.37275 32.4878V32.5003H8.32557V37.4388H8.33569C8.37801 37.8142 8.58823 38.1656 8.94013 38.3689C9.10748 38.4652 9.2952 38.5206 9.48801 38.5306C9.68081 38.5406 9.87325 38.5049 10.0497 38.4264L10.0556 38.437L14.4169 35.919L16.8319 40.1022L16.8406 40.0972C16.9543 40.2528 17.1031 40.3794 17.2748 40.4668C17.4465 40.5543 17.6365 40.6 17.8292 40.6004C18.2363 40.6004 18.5946 40.4003 18.8186 40.0962L18.8292 40.1022L21.2842 35.85L25.5121 38.2907L25.5172 38.282C25.6934 38.36 25.8855 38.3953 26.078 38.3852C26.2704 38.375 26.4578 38.3197 26.6248 38.2236C26.7918 38.1269 26.9337 37.9921 27.0388 37.8302C27.1439 37.6684 27.2093 37.484 27.2297 37.2921H27.2422V32.3825H32.1241V32.3728C32.3157 32.3522 32.4998 32.2868 32.6614 32.1817C32.823 32.0767 32.9576 31.9351 33.0543 31.7684C33.1504 31.6011 33.2057 31.4135 33.2157 31.2208C33.2258 31.0281 33.1903 30.8358 33.1122 30.6593L33.1228 30.6534L30.7096 26.4733L35.0309 23.9783L35.0258 23.9696C35.1815 23.8559 35.3082 23.7072 35.3956 23.5354C35.483 23.3637 35.5287 23.1737 35.5291 22.981ZM14.9013 28.2227L10.3721 26.2217L12.3708 29.6832L11.2411 30.3355L8.17653 25.0285L9.33803 24.3573L13.7218 26.2719L11.7967 22.9378L12.927 22.2855L15.9906 27.5925L14.9013 28.2227ZM17.0412 26.9872L13.9771 21.6797L17.733 19.5117L18.3071 20.5062L15.681 22.0219L16.3241 23.136L18.8941 21.6525L19.4682 22.6461L16.8981 24.1306L17.5964 25.3399L20.2226 23.8242L20.7966 24.8187L17.0412 26.9872ZM25.738 21.9663L22.7029 18.8594L23.8837 23.0362L22.6826 23.7299L18.0987 19.3006L19.3637 18.5701L22.5092 21.8674L21.3054 17.4491L22.1886 16.9394L25.4054 20.1957L24.122 15.823L25.387 15.0925L26.9395 21.273L25.738 21.9663Z" fill="#3035BF"/>
</svg>
