<svg width="43" height="44" viewBox="0 0 43 44" fill="none" xmlns="http://www.w3.org/2000/svg">
<path d="M37.9748 42.0289L38.331 42.3903L38.6871 42.0289L41.8047 38.8651L42.1505 38.5141L41.8047 38.1632L28.0799 24.2346C28.8812 23.1434 29.5228 21.9125 30.0064 20.5453C30.5461 19.0195 30.8144 17.3997 30.8144 15.6893C30.8144 11.4567 29.365 7.85447 26.4686 4.91356L26.4685 4.91337C23.5703 1.97371 20.0173 0.5 15.8401 0.5C11.6628 0.5 8.11056 1.97372 5.21382 4.91347C2.31596 7.85435 0.865723 11.4566 0.865723 15.6893C0.865723 19.9219 2.31596 23.5242 5.21382 26.4651C8.11056 29.4048 11.6628 30.8785 15.8401 30.8785C17.5279 30.8785 19.1264 30.6058 20.6319 30.0574C21.9759 29.5677 23.1859 28.9189 24.2589 28.1093L37.9748 42.0289ZM25.3608 15.6893C25.3608 18.3854 24.4367 20.6602 22.5829 22.543C20.728 24.4239 18.4901 25.3588 15.8401 25.3588C13.1901 25.3588 10.9522 24.4239 9.09724 22.543C7.24341 20.6602 6.31937 18.3854 6.31937 15.6893C6.31937 12.9932 7.24332 10.7186 9.09698 8.83582C10.9519 6.95474 13.19 6.01977 15.8401 6.01977C18.4901 6.01977 20.728 6.95465 22.5829 8.83555C24.4367 10.7183 25.3608 12.9931 25.3608 15.6893Z" fill="#102A43" stroke="#BCCCDC"/>
</svg>
