<svg width="360" height="223" viewBox="0 0 360 223" fill="none" xmlns="http://www.w3.org/2000/svg">
<path d="M0 0H360V223H0V0Z" fill="#D9D9D9"/>
<path d="M235.216 57H124.784C122.455 57 120.22 57.9347 118.573 59.5986C116.925 61.2624 116 63.5191 116 65.8721V157.128C116 159.481 116.925 161.738 118.573 163.401C120.22 165.065 122.455 166 124.784 166H235.216C237.545 166 239.78 165.065 241.427 163.401C243.075 161.738 244 159.481 244 157.128V65.8721C244 63.5191 243.075 61.2624 241.427 59.5986C239.78 57.9347 237.545 57 235.216 57ZM124.784 64.6047H235.216C235.549 64.6047 235.868 64.7382 236.103 64.9759C236.338 65.2136 236.471 65.5359 236.471 65.8721V137.799L216.329 117.457C214.674 115.808 212.443 114.884 210.118 114.884C207.793 114.884 205.561 115.808 203.906 117.457L190.918 130.575C190.806 130.698 190.67 130.796 190.519 130.863C190.368 130.93 190.204 130.965 190.039 130.965C189.874 130.965 189.711 130.93 189.559 130.863C189.408 130.796 189.272 130.698 189.161 130.575L161.114 102.248C159.458 100.599 157.227 99.6747 154.902 99.6747C152.577 99.6747 150.346 100.599 148.69 102.248L123.529 127.66V65.8721C123.529 65.5359 123.662 65.2136 123.897 64.9759C124.132 64.7382 124.451 64.6047 124.784 64.6047ZM235.216 158.395H124.784C124.451 158.395 124.132 158.262 123.897 158.024C123.662 157.786 123.529 157.464 123.529 157.128V138.433L154.024 107.634C154.135 107.511 154.271 107.413 154.422 107.346C154.573 107.279 154.737 107.244 154.902 107.244C155.067 107.244 155.231 107.279 155.382 107.346C155.533 107.413 155.669 107.511 155.78 107.634L183.827 135.962C185.483 137.61 187.714 138.535 190.039 138.535C192.364 138.535 194.596 137.61 196.251 135.962L209.239 122.844C209.351 122.721 209.487 122.623 209.638 122.555C209.789 122.488 209.952 122.454 210.118 122.454C210.283 122.454 210.446 122.488 210.597 122.555C210.749 122.623 210.884 122.721 210.996 122.844L236.471 148.573V157.128C236.471 157.464 236.338 157.786 236.103 158.024C235.868 158.262 235.549 158.395 235.216 158.395ZM193.114 98.2552C192.529 97.6652 192.067 96.9633 191.755 96.1907C191.443 95.4181 191.286 94.5903 191.294 93.7558C191.294 92.0751 191.955 90.4632 193.132 89.2747C194.309 88.0863 195.905 87.4186 197.569 87.4186C199.233 87.4186 200.829 88.0863 202.005 89.2747C203.182 90.4632 203.843 92.0751 203.843 93.7558C203.843 95.4365 203.182 97.0484 202.005 98.2369C200.829 99.4254 199.233 100.093 197.569 100.093C196.742 100.101 195.923 99.9431 195.158 99.6275C194.393 99.312 193.698 98.8454 193.114 98.2552Z" fill="black"/>
</svg>
